<mxfile host="Electron" agent="Mozilla/5.0 (Macintosh; Intel Mac OS X 10_15_7) AppleWebKit/537.36 (KHTML, like Gecko) draw.io/26.1.1 Chrome/132.0.6834.210 Electron/34.3.3 Safari/537.36" version="26.1.1">
  <diagram name="Page-1" id="OXetu0XD5c__kqgilP7n">
    <mxGraphModel dx="794" dy="553" grid="1" gridSize="10" guides="1" tooltips="1" connect="1" arrows="1" fold="1" page="1" pageScale="1" pageWidth="800" pageHeight="480" math="1" shadow="0">
      <root>
        <mxCell id="0" />
        <mxCell id="1" parent="0" />
        <mxCell id="i_zUyOydAraDQA24XFd4-66" value="&lt;font face=&quot;Times New Roman&quot;&gt;FLP&lt;/font&gt;" style="rounded=1;whiteSpace=wrap;html=1;verticalAlign=top;fontSize=16;dashed=1;dashPattern=8 8;fillColor=#ffe6cc;strokeColor=#d79b00;opacity=50;" parent="1" vertex="1">
          <mxGeometry x="15" y="340" width="770" height="135" as="geometry" />
        </mxCell>
        <mxCell id="i_zUyOydAraDQA24XFd4-31" value="" style="group;flipH=1;" parent="1" vertex="1" connectable="0">
          <mxGeometry x="40" y="30" width="740" height="300" as="geometry" />
        </mxCell>
        <mxCell id="i_zUyOydAraDQA24XFd4-56" value="&lt;font face=&quot;Times New Roman&quot;&gt;SLH-DSA&lt;/font&gt;" style="rounded=1;whiteSpace=wrap;html=1;verticalAlign=top;fontSize=16;dashed=1;dashPattern=8 8;fillColor=#dae8fc;strokeColor=#6c8ebf;opacity=50;" parent="i_zUyOydAraDQA24XFd4-31" vertex="1">
          <mxGeometry x="-30" y="-20" width="770" height="320" as="geometry" />
        </mxCell>
        <mxCell id="i_zUyOydAraDQA24XFd4-1" value="&lt;font face=&quot;Times New Roman&quot;&gt;ATA&lt;/font&gt;" style="rounded=1;whiteSpace=wrap;html=1;verticalAlign=top;fontSize=14;fillColor=#fff2cc;strokeColor=#d6b656;shadow=1;opacity=80;" parent="i_zUyOydAraDQA24XFd4-31" vertex="1">
          <mxGeometry width="140" height="280" as="geometry" />
        </mxCell>
        <mxCell id="i_zUyOydAraDQA24XFd4-5" value="$$g_{(1,1)}$$" style="rounded=1;whiteSpace=wrap;html=1;fillColor=#e1d5e7;strokeColor=#9673a6;shadow=1;" parent="i_zUyOydAraDQA24XFd4-31" vertex="1">
          <mxGeometry x="15" y="30" width="110" height="30" as="geometry" />
        </mxCell>
        <mxCell id="i_zUyOydAraDQA24XFd4-6" value="$$g_{(1,2)}$$" style="rounded=1;whiteSpace=wrap;html=1;fillColor=#e1d5e7;strokeColor=#9673a6;shadow=1;" parent="i_zUyOydAraDQA24XFd4-31" vertex="1">
          <mxGeometry x="15" y="70" width="110" height="30" as="geometry" />
        </mxCell>
        <mxCell id="i_zUyOydAraDQA24XFd4-7" value="$$g_{(1,t_1)}$$" style="rounded=1;whiteSpace=wrap;html=1;fillColor=#e1d5e7;strokeColor=#9673a6;shadow=1;" parent="i_zUyOydAraDQA24XFd4-31" vertex="1">
          <mxGeometry x="15" y="230" width="110" height="30" as="geometry" />
        </mxCell>
        <mxCell id="i_zUyOydAraDQA24XFd4-8" value="$$g_{(1,t_1-1)}$$" style="rounded=1;whiteSpace=wrap;html=1;fillColor=#e1d5e7;strokeColor=#9673a6;shadow=1;" parent="i_zUyOydAraDQA24XFd4-31" vertex="1">
          <mxGeometry x="15" y="190" width="110" height="30" as="geometry" />
        </mxCell>
        <mxCell id="i_zUyOydAraDQA24XFd4-11" value="" style="endArrow=none;dashed=1;html=1;strokeWidth=2;rounded=0;entryX=0.5;entryY=0;entryDx=0;entryDy=0;exitX=0.5;exitY=1;exitDx=0;exitDy=0;dashPattern=1 1;opacity=50;" parent="i_zUyOydAraDQA24XFd4-31" source="i_zUyOydAraDQA24XFd4-6" target="i_zUyOydAraDQA24XFd4-8" edge="1">
          <mxGeometry width="50" height="50" relative="1" as="geometry">
            <mxPoint x="80" y="180" as="sourcePoint" />
            <mxPoint x="30" y="130" as="targetPoint" />
          </mxGeometry>
        </mxCell>
        <mxCell id="i_zUyOydAraDQA24XFd4-32" value="" style="group;flipH=1;fontSize=14;shadow=0;" parent="1" vertex="1" connectable="0">
          <mxGeometry x="230" y="30" width="140" height="280" as="geometry" />
        </mxCell>
        <mxCell id="i_zUyOydAraDQA24XFd4-33" value="&lt;font face=&quot;Times New Roman&quot; style=&quot;font-size: 14px;&quot;&gt;ATA&lt;/font&gt;" style="rounded=1;whiteSpace=wrap;html=1;verticalAlign=top;fillColor=#fff2cc;strokeColor=#d6b656;shadow=1;opacity=80;" parent="i_zUyOydAraDQA24XFd4-32" vertex="1">
          <mxGeometry width="140" height="280" as="geometry" />
        </mxCell>
        <mxCell id="i_zUyOydAraDQA24XFd4-34" value="$$g_{(2,1)}$$" style="rounded=1;whiteSpace=wrap;html=1;fillColor=#e1d5e7;strokeColor=#9673a6;shadow=1;" parent="i_zUyOydAraDQA24XFd4-32" vertex="1">
          <mxGeometry x="15" y="30" width="110" height="30" as="geometry" />
        </mxCell>
        <mxCell id="i_zUyOydAraDQA24XFd4-35" value="$$g_{(2,2)}$$" style="rounded=1;whiteSpace=wrap;html=1;fillColor=#e1d5e7;strokeColor=#9673a6;shadow=1;" parent="i_zUyOydAraDQA24XFd4-32" vertex="1">
          <mxGeometry x="15" y="70" width="110" height="30" as="geometry" />
        </mxCell>
        <mxCell id="i_zUyOydAraDQA24XFd4-36" value="$$g_{(2,t_2)}$$" style="rounded=1;whiteSpace=wrap;html=1;fillColor=#e1d5e7;strokeColor=#9673a6;shadow=1;" parent="i_zUyOydAraDQA24XFd4-32" vertex="1">
          <mxGeometry x="15" y="230" width="110" height="30" as="geometry" />
        </mxCell>
        <mxCell id="i_zUyOydAraDQA24XFd4-37" value="$$g_{(2,t_2-1)}$$" style="rounded=1;whiteSpace=wrap;html=1;fillColor=#e1d5e7;strokeColor=#9673a6;shadow=1;" parent="i_zUyOydAraDQA24XFd4-32" vertex="1">
          <mxGeometry x="15" y="190" width="110" height="30" as="geometry" />
        </mxCell>
        <mxCell id="i_zUyOydAraDQA24XFd4-38" value="" style="endArrow=none;dashed=1;html=1;strokeWidth=2;rounded=0;entryX=0.5;entryY=0;entryDx=0;entryDy=0;exitX=0.5;exitY=1;exitDx=0;exitDy=0;dashPattern=1 1;opacity=50;" parent="i_zUyOydAraDQA24XFd4-32" source="i_zUyOydAraDQA24XFd4-35" target="i_zUyOydAraDQA24XFd4-37" edge="1">
          <mxGeometry width="50" height="50" relative="1" as="geometry">
            <mxPoint x="80" y="180" as="sourcePoint" />
            <mxPoint x="30" y="130" as="targetPoint" />
          </mxGeometry>
        </mxCell>
        <mxCell id="i_zUyOydAraDQA24XFd4-39" value="" style="group;flipH=1;shadow=0;" parent="1" vertex="1" connectable="0">
          <mxGeometry x="420" y="30" width="140" height="280" as="geometry" />
        </mxCell>
        <mxCell id="i_zUyOydAraDQA24XFd4-40" value="&lt;font face=&quot;Times New Roman&quot; style=&quot;font-size: 14px;&quot;&gt;ATA&lt;/font&gt;" style="rounded=1;whiteSpace=wrap;html=1;verticalAlign=top;fillColor=#fff2cc;strokeColor=#d6b656;shadow=1;opacity=80;" parent="i_zUyOydAraDQA24XFd4-39" vertex="1">
          <mxGeometry width="140" height="280" as="geometry" />
        </mxCell>
        <mxCell id="i_zUyOydAraDQA24XFd4-41" value="$$g_{(m-1,1)}$$" style="rounded=1;whiteSpace=wrap;html=1;fillColor=#e1d5e7;strokeColor=#9673a6;shadow=1;" parent="i_zUyOydAraDQA24XFd4-39" vertex="1">
          <mxGeometry x="15" y="30" width="110" height="30" as="geometry" />
        </mxCell>
        <mxCell id="i_zUyOydAraDQA24XFd4-42" value="$$g_{(m-1,2)}$$" style="rounded=1;whiteSpace=wrap;html=1;fillColor=#e1d5e7;strokeColor=#9673a6;shadow=1;" parent="i_zUyOydAraDQA24XFd4-39" vertex="1">
          <mxGeometry x="15" y="70" width="110" height="30" as="geometry" />
        </mxCell>
        <mxCell id="i_zUyOydAraDQA24XFd4-43" value="$$g_{(m-1,t_{m-1})}$$" style="rounded=1;whiteSpace=wrap;html=1;fillColor=#e1d5e7;strokeColor=#9673a6;shadow=1;" parent="i_zUyOydAraDQA24XFd4-39" vertex="1">
          <mxGeometry x="15" y="230" width="110" height="30" as="geometry" />
        </mxCell>
        <mxCell id="i_zUyOydAraDQA24XFd4-44" value="$$g_{(m-1,t_{m-1}-1)}$$" style="rounded=1;whiteSpace=wrap;html=1;fillColor=#e1d5e7;strokeColor=#9673a6;shadow=1;shadowOpacity=25;" parent="i_zUyOydAraDQA24XFd4-39" vertex="1">
          <mxGeometry x="15" y="190" width="110" height="30" as="geometry" />
        </mxCell>
        <mxCell id="i_zUyOydAraDQA24XFd4-45" value="" style="endArrow=none;dashed=1;html=1;strokeWidth=2;rounded=0;entryX=0.5;entryY=0;entryDx=0;entryDy=0;exitX=0.5;exitY=1;exitDx=0;exitDy=0;dashPattern=1 1;opacity=50;" parent="i_zUyOydAraDQA24XFd4-39" source="i_zUyOydAraDQA24XFd4-42" target="i_zUyOydAraDQA24XFd4-44" edge="1">
          <mxGeometry width="50" height="50" relative="1" as="geometry">
            <mxPoint x="80" y="180" as="sourcePoint" />
            <mxPoint x="30" y="130" as="targetPoint" />
          </mxGeometry>
        </mxCell>
        <mxCell id="i_zUyOydAraDQA24XFd4-46" value="" style="group;flipH=1;verticalAlign=top;shadow=0;" parent="1" vertex="1" connectable="0">
          <mxGeometry x="610" y="30" width="140" height="280" as="geometry" />
        </mxCell>
        <mxCell id="i_zUyOydAraDQA24XFd4-47" value="&lt;font face=&quot;Times New Roman&quot; style=&quot;font-size: 14px;&quot;&gt;ATA&lt;/font&gt;" style="rounded=1;whiteSpace=wrap;html=1;verticalAlign=top;fillColor=#fff2cc;strokeColor=#d6b656;shadow=1;opacity=80;" parent="i_zUyOydAraDQA24XFd4-46" vertex="1">
          <mxGeometry width="140" height="280" as="geometry" />
        </mxCell>
        <mxCell id="i_zUyOydAraDQA24XFd4-48" value="$$g_{(m,1)}$$" style="rounded=1;whiteSpace=wrap;html=1;fillColor=#e1d5e7;strokeColor=#9673a6;shadow=1;" parent="i_zUyOydAraDQA24XFd4-46" vertex="1">
          <mxGeometry x="15" y="30" width="110" height="30" as="geometry" />
        </mxCell>
        <mxCell id="i_zUyOydAraDQA24XFd4-49" value="$$g_{(m,2)}$$" style="rounded=1;whiteSpace=wrap;html=1;fillColor=#e1d5e7;strokeColor=#9673a6;shadow=1;" parent="i_zUyOydAraDQA24XFd4-46" vertex="1">
          <mxGeometry x="15" y="70" width="110" height="30" as="geometry" />
        </mxCell>
        <mxCell id="i_zUyOydAraDQA24XFd4-50" value="$$g_{(m,t_m)}$$" style="rounded=1;whiteSpace=wrap;html=1;fillColor=#e1d5e7;strokeColor=#9673a6;shadow=1;" parent="i_zUyOydAraDQA24XFd4-46" vertex="1">
          <mxGeometry x="15" y="230" width="110" height="30" as="geometry" />
        </mxCell>
        <mxCell id="i_zUyOydAraDQA24XFd4-51" value="$$g_{(m,t_m-1)}$$" style="rounded=1;whiteSpace=wrap;html=1;fillColor=#e1d5e7;strokeColor=#9673a6;shadow=1;" parent="i_zUyOydAraDQA24XFd4-46" vertex="1">
          <mxGeometry x="15" y="190" width="110" height="30" as="geometry" />
        </mxCell>
        <mxCell id="i_zUyOydAraDQA24XFd4-52" value="" style="endArrow=none;dashed=1;html=1;strokeWidth=2;rounded=0;entryX=0.5;entryY=0;entryDx=0;entryDy=0;exitX=0.5;exitY=1;exitDx=0;exitDy=0;dashPattern=1 1;opacity=50;" parent="i_zUyOydAraDQA24XFd4-46" source="i_zUyOydAraDQA24XFd4-49" target="i_zUyOydAraDQA24XFd4-51" edge="1">
          <mxGeometry width="50" height="50" relative="1" as="geometry">
            <mxPoint x="80" y="180" as="sourcePoint" />
            <mxPoint x="30" y="130" as="targetPoint" />
          </mxGeometry>
        </mxCell>
        <mxCell id="i_zUyOydAraDQA24XFd4-53" style="edgeStyle=orthogonalEdgeStyle;rounded=0;orthogonalLoop=1;jettySize=auto;html=1;entryX=0;entryY=0.5;entryDx=0;entryDy=0;strokeWidth=2;shape=flexArrow;strokeColor=#A9C4EB;" parent="1" source="i_zUyOydAraDQA24XFd4-1" target="i_zUyOydAraDQA24XFd4-33" edge="1">
          <mxGeometry relative="1" as="geometry" />
        </mxCell>
        <mxCell id="i_zUyOydAraDQA24XFd4-54" style="edgeStyle=orthogonalEdgeStyle;rounded=0;orthogonalLoop=1;jettySize=auto;html=1;entryX=0;entryY=0.5;entryDx=0;entryDy=0;strokeWidth=2;shape=flexArrow;dashed=1;strokeColor=#A9C4EB;" parent="1" source="i_zUyOydAraDQA24XFd4-33" target="i_zUyOydAraDQA24XFd4-40" edge="1">
          <mxGeometry relative="1" as="geometry" />
        </mxCell>
        <mxCell id="i_zUyOydAraDQA24XFd4-55" style="edgeStyle=orthogonalEdgeStyle;rounded=0;orthogonalLoop=1;jettySize=auto;html=1;entryX=0;entryY=0.5;entryDx=0;entryDy=0;strokeWidth=2;shape=flexArrow;strokeColor=#A9C4EB;" parent="1" source="i_zUyOydAraDQA24XFd4-40" target="i_zUyOydAraDQA24XFd4-47" edge="1">
          <mxGeometry relative="1" as="geometry" />
        </mxCell>
        <mxCell id="i_zUyOydAraDQA24XFd4-64" style="edgeStyle=orthogonalEdgeStyle;rounded=0;orthogonalLoop=1;jettySize=auto;html=1;fillColor=#fff2cc;strokeColor=#d6b656;shape=link;strokeWidth=3;" parent="1" source="i_zUyOydAraDQA24XFd4-59" target="i_zUyOydAraDQA24XFd4-63" edge="1">
          <mxGeometry relative="1" as="geometry" />
        </mxCell>
        <mxCell id="i_zUyOydAraDQA24XFd4-59" value="$$g_{(1,t_1)}$$" style="rounded=1;whiteSpace=wrap;html=1;fillColor=#e1d5e7;strokeColor=#9673a6;glass=0;shadow=1;shadowOpacity=25;opacity=80;" parent="1" vertex="1">
          <mxGeometry x="50" y="367" width="710" height="30" as="geometry" />
        </mxCell>
        <mxCell id="i_zUyOydAraDQA24XFd4-61" value="" style="endArrow=none;dashed=1;html=1;dashPattern=1 4;strokeWidth=2;rounded=0;exitX=1;exitY=1;exitDx=0;exitDy=0;entryX=1;entryY=0;entryDx=0;entryDy=0;strokeColor=#000000;endFill=0;opacity=50;" parent="1" source="i_zUyOydAraDQA24XFd4-7" target="i_zUyOydAraDQA24XFd4-59" edge="1">
          <mxGeometry width="50" height="50" relative="1" as="geometry">
            <mxPoint x="360" y="270" as="sourcePoint" />
            <mxPoint x="410" y="220" as="targetPoint" />
          </mxGeometry>
        </mxCell>
        <mxCell id="i_zUyOydAraDQA24XFd4-62" value="" style="endArrow=none;html=1;strokeWidth=2;rounded=0;exitX=0;exitY=1;exitDx=0;exitDy=0;entryX=0;entryY=0;entryDx=0;entryDy=0;curved=0;dashed=1;dashPattern=1 4;strokeColor=#000000;endFill=0;opacity=50;" parent="1" source="i_zUyOydAraDQA24XFd4-7" target="i_zUyOydAraDQA24XFd4-59" edge="1">
          <mxGeometry width="50" height="50" relative="1" as="geometry">
            <mxPoint x="360" y="270" as="sourcePoint" />
            <mxPoint x="410" y="220" as="targetPoint" />
          </mxGeometry>
        </mxCell>
        <mxCell id="i_zUyOydAraDQA24XFd4-63" value="" style="rounded=1;whiteSpace=wrap;html=1;fillColor=#e1d5e7;strokeColor=#9673a6;shadow=1;opacity=80;" parent="1" vertex="1">
          <mxGeometry x="40" y="415" width="730" height="50" as="geometry" />
        </mxCell>
        <mxCell id="i_zUyOydAraDQA24XFd4-65" value="$$g_{(1,t_1)_1}$$" style="rounded=1;whiteSpace=wrap;html=1;fillColor=#ffe6cc;strokeColor=#d79b00;" parent="1" vertex="1">
          <mxGeometry x="60" y="420" width="50" height="40" as="geometry" />
        </mxCell>
        <mxCell id="i_zUyOydAraDQA24XFd4-67" value="$$g_{(1,t_1)_2}$$" style="rounded=1;whiteSpace=wrap;html=1;fillColor=#ffe6cc;strokeColor=#d79b00;" parent="1" vertex="1">
          <mxGeometry x="140" y="420" width="50" height="40" as="geometry" />
        </mxCell>
        <mxCell id="i_zUyOydAraDQA24XFd4-75" style="edgeStyle=orthogonalEdgeStyle;rounded=0;orthogonalLoop=1;jettySize=auto;html=1;endArrow=none;endFill=0;dashed=1;" parent="1" source="i_zUyOydAraDQA24XFd4-68" target="i_zUyOydAraDQA24XFd4-70" edge="1">
          <mxGeometry relative="1" as="geometry" />
        </mxCell>
        <mxCell id="i_zUyOydAraDQA24XFd4-68" value="$$g_{(1,t_1)_3}$$" style="rounded=1;whiteSpace=wrap;html=1;fillColor=#ffe6cc;strokeColor=#d79b00;" parent="1" vertex="1">
          <mxGeometry x="220" y="420" width="50" height="40" as="geometry" />
        </mxCell>
        <mxCell id="i_zUyOydAraDQA24XFd4-70" value="$$g_{(1,t_1)_{n-2}}$$" style="rounded=1;whiteSpace=wrap;html=1;fillColor=#ffe6cc;strokeColor=#d79b00;" parent="1" vertex="1">
          <mxGeometry x="540" y="420" width="50" height="40" as="geometry" />
        </mxCell>
        <mxCell id="i_zUyOydAraDQA24XFd4-71" value="$$g_{(1,t_1)_{n-1}}$$" style="rounded=1;whiteSpace=wrap;html=1;fillColor=#ffe6cc;strokeColor=#d79b00;" parent="1" vertex="1">
          <mxGeometry x="620" y="420" width="50" height="40" as="geometry" />
        </mxCell>
        <mxCell id="i_zUyOydAraDQA24XFd4-72" value="$$g_{(1,t_1)_n}$$" style="rounded=1;whiteSpace=wrap;html=1;fillColor=#ffe6cc;strokeColor=#d79b00;" parent="1" vertex="1">
          <mxGeometry x="700" y="420" width="50" height="40" as="geometry" />
        </mxCell>
      </root>
    </mxGraphModel>
  </diagram>
</mxfile>
